<svg xmlns="http://www.w3.org/2000/svg" viewBox="0 0 28.69 64.98"><defs><style>.cls-1{fill:#6b6b6b;stroke:#505659;stroke-miterlimit:10;stroke-width:0.75px;}</style></defs><title>Asset 3</title><g id="Layer_2" data-name="Layer 2"><g id="Layer_1-2" data-name="Layer 1"><path class="cls-1" d="M14.12.38a.87.87,0,0,0-.92.92V6a13.68,13.68,0,0,0,0,27.3V57A11.8,11.8,0,0,1,2.76,45.27a.87.87,0,0,0-.92-.92.87.87,0,0,0-.92.92A13.79,13.79,0,0,0,13.2,58.92v4.76a.92.92,0,0,0,1.83,0V59a13.66,13.66,0,0,0,0-27.3V7.89A11.89,11.89,0,0,1,26,19.71a.92.92,0,0,0,1.83,0A13.72,13.72,0,0,0,15,6.06V1.38A.94.94,0,0,0,14.12.38ZM2.3,19.71a11.89,11.89,0,0,1,11-11.82V31.53A11.82,11.82,0,0,1,2.3,19.71ZM26.58,45.27A11.84,11.84,0,0,1,15.13,57.09V33.45A11.84,11.84,0,0,1,26.58,45.27Z"/></g></g></svg>