<svg xmlns="http://www.w3.org/2000/svg" viewBox="0 0 91.99 54.17"><defs><style>.cls-1{fill:#6b6b6b;}</style></defs><title>Asset 2</title><g id="Layer_2" data-name="Layer 2"><g id="Layer_1-2" data-name="Layer 1"><path class="cls-1" d="M64.9,54.17A27.09,27.09,0,1,1,92,27.08,27.12,27.12,0,0,1,64.9,54.17ZM64.9,3A24.09,24.09,0,1,0,89,27.08,24.11,24.11,0,0,0,64.9,3Z"/><path class="cls-1" d="M66.08,30.68a1.5,1.5,0,0,1-.6-.12L49.59,23.61a1.5,1.5,0,1,1,1.2-2.75l13.79,6V13.47a1.5,1.5,0,1,1,3,0v15.7a1.5,1.5,0,0,1-1.5,1.5Z"/><line class="cls-1" x1="26.7" y1="29.18" x2="1.5" y2="29.18"/><path class="cls-1" d="M26.7,30.68H1.5a1.5,1.5,0,0,1,0-3H26.7a1.5,1.5,0,0,1,0,3Z"/><line class="cls-1" x1="34.23" y1="17.59" x2="9.03" y2="17.59"/><path class="cls-1" d="M34.23,19.09H9a1.5,1.5,0,0,1,0-3h25.2a1.5,1.5,0,0,1,0,3Z"/><line class="cls-1" x1="29.59" y1="29.18" x2="4.4" y2="29.18"/><path class="cls-1" d="M29.59,30.68H4.4a1.5,1.5,0,0,1,0-3h25.2a1.5,1.5,0,0,1,0,3Z"/><line class="cls-1" x1="34.23" y1="40.76" x2="9.03" y2="40.76"/><path class="cls-1" d="M34.23,42.26H9a1.5,1.5,0,0,1,0-3h25.2a1.5,1.5,0,0,1,0,3Z"/></g></g></svg>