<svg xmlns="http://www.w3.org/2000/svg" viewBox="0 0 600.94 73.74"><defs><style>.cls-1{font-size:40px;font-family:OpenSans-Bold, Open Sans;font-weight:700;}.cls-1,.cls-2{fill:#fff;}</style></defs><title>Asset 3</title><g id="Layer_2" data-name="Layer 2"><g id="Layer_1-2" data-name="Layer 1"><text class="cls-1" transform="translate(93.97 53.13)">BLOCKCHAIN, EXPLAINED</text><path class="cls-2" d="M34,0,19.51,20.73,30.2,43.67l9.06.77-1.51-3.22-5.52-.46L23.8,22.65l19.9,1.74L52.15,42.5l-3-.29,1.51,3.22,4.77.44L69.93,25.14,59.24,2.2Zm-10,19.58L35.53,3.22,55.43,5,44,21.32Zm42.32,5.25L54.93,41.2,46.49,23.09,57.95,6.72Z"/><path class="cls-2" d="M39.73,30.07l-9.12-.83,1.51,3.22,5.58.52,8.44,18.11-19.9-1.74L17.79,31.24l3,.24-1.51-3.22-4.74-.4L0,48.59,10.7,71.53l25.21,2.21L50.42,53ZM3.54,48.9,15,32.54l8.44,18.11L12,67ZM34.4,70.52,14.5,68.78,26,52.41l19.9,1.74Z"/></g></g></svg>