<svg xmlns="http://www.w3.org/2000/svg" viewBox="0 0 50.68 66.77"><defs><style>.cls-1{fill:#6b6b6b;stroke:#505659;stroke-miterlimit:10;stroke-width:0.75px;}</style></defs><title>Asset 1</title><g id="Layer_2" data-name="Layer 2"><g id="Layer_1-2" data-name="Layer 1"><path class="cls-1" d="M22.23,64.39l2.63,1.85a.83.83,0,0,0,1,0l2.63-1.86A121.2,121.2,0,0,0,42.21,53.73c5.52-5.27,8.09-10.17,8.09-15.43V18A9.15,9.15,0,0,0,45.49,10L29.68,1.47a9.15,9.15,0,0,0-8.69,0L5.18,10A9.15,9.15,0,0,0,.38,18V38.3c0,5.26,2.57,10.16,8.09,15.43A121.24,121.24,0,0,0,22.23,64.39ZM2,38.3V18A7.49,7.49,0,0,1,6,11.46L21.79,2.94a7.49,7.49,0,0,1,7.11,0h0L44.7,11.46A7.49,7.49,0,0,1,48.64,18V38.3c0,4.77-2.4,9.29-7.57,14.22A118.86,118.86,0,0,1,27.49,63l-2.16,1.52L23.18,63A116,116,0,0,1,9.6,52.52C4.44,47.6,2,43.08,2,38.3Z"/><path class="cls-1" d="M20.25,41.47a.83.83,0,0,0,.59.29h0a.83.83,0,0,0,.58-.23l17.47-17a.83.83,0,0,0-1.16-1.19L20.94,39.72l-7.76-9.05a.83.83,0,1,0-1.26,1.06Z"/></g></g></svg>